<svg width="600" height="300" viewBox="0 0 600 300" fill="none" xmlns="http://www.w3.org/2000/svg">
<g clip-path="url(#clip0_2_2)">
<rect width="600" height="300" fill="#CE1720"/>
<path d="M0.666667 0H0V0.666667H0.666667V0Z" fill="#CE1720"/>
<path d="M3.33333 0H70V300H3.33333V0Z" fill="white"/>
<path d="M38.1333 0V10.8667H35.2V0H38.1333ZM0.666667 19H5.93333V14.6667H8.6V9.4H12.3333V4.8H15.4V0H24.6667V4.8H27.6667V9.4H31.4V14.6667H34.0667V19H38.1333V25.7333H34.0667V30.0667H31.4V35.3333H27.6667V39.9333H24.6667V44.8667H22.5333V49H17.5333V44.8667H15.4V39.9333H12.3333V35.3333H8.6V30.0667H5.93333V25.7333H0.666667M0.666667 2.26667H5.93333V8.26667H0.666667M21.3333 10.0667H18.6V14.1333H16V19.2667H13.4667V25.6H16V30.7333H18.6V34.7333H21.3333V30.7333H23.9333V25.6H26.5333V19.2667H23.9333V14.1333H21.3333V10.0667ZM21.6 19.3333V25.3333H18.3333V19.3333H21.6ZM0.666667 35.0667H5.93333V41.5333H0.666667M38.1333 35.6667V44.8H35.2V35.6667H38.1333ZM30.9333 45.8V50.3333H34.1333V55H38.1333V61.1333H34.1333V65.8667H30.9333V70.4H27.2V65.8667H24V61.1333H21.3333V55H24V50.3333H27.2V45.8H30.9333ZM0.666667 55H5.93333V50.3333H9.13333V45.8H12.8V50.3333H16V55H18.6667V61.1333H16V65.8667H12.8V70.4H9.13333V65.8667H5.93333V61.1333H0.666667M30.4667 55.1333H27.7333V60.9333H30.4667V55.1333ZM12.4 55.1333H9.66667V60.9333H12.4V55.1333ZM13.4667 151.2V148.067H11.2V143.333H8.2V140.467H5.93333V135.867H0.666667V125.2H5.93333V128.267H8.2V132.733H11.2V138.067H15.4667V133.267H18.6V129.733H20.8667V125.533H23.8667V121.067H26.0667V116.533H28.2V111.867H31.0667V105.6H27.2667V99.9333H23.1333V96.5333H16.2V101.467H20.2V105.933H17.5333V111.4H14.4V116.2H10.4667V111.4H7.2V105.933H5.2V101.467H0.666667V93H5.93333V87.5333H7.93333V83.3333H9.8V78.5333H12.4667V73.8H15.0667V70.6667H18.2V65.9333H22V70.6667H25.1333V73.8H27.8V78.5333H30.4V83.3333H32.5333V87.4667H34.6667V91.0667H38.1333V117.533H34.2V122H33.0667V126.667H30.1333V131.2H28.3333V134.533H26.4667V138.067H23.2667V141.533H18.6667V151.2M38.1333 70.3333V79.4667H35.2V70.3333H38.1333ZM0.666667 72.0667H5.93333V78.5333H0.666667M0.666667 110.933H5.93333V117.4H0.666667V110.933ZM38 127.333V133.2H35.2V127.333H38ZM34.1333 151.2V147.533H32.4V144.667H29.8667V136.067H32.4V139.533H35.0667V144.6H38V151.133M23.7333 151.133V146.867H26.5333V151.133" fill="#CE1720"/>
<path d="M35.2 0V10.8667H38.1333V0H35.2ZM72.6667 19H67.4V14.6667H64.7333V9.4H61V4.8H57.9333V0H48.6667V4.8H45.6667V9.4H41.9333V14.6667H39.2667V19H35.2V25.7333H39.2667V30.0667H41.9333V35.3333H45.6667V39.9333H48.6667V44.8667H50.8V49H55.8V44.8667H57.9333V39.9333H61V35.3333H64.7333V30.0667H67.4V25.7333H72.6667M72.6667 2.26667H67.4V8.26667H72.6667M52 10.0667H54.7333V14.1333H57.3333V19.2667H59.8667V25.6H57.3333V30.7333H54.7333V34.7333H52V30.7333H49.4V25.6H46.8V19.2667H49.4V14.1333H52V10.0667ZM51.7333 19.3333V25.3333H55V19.3333H51.7333ZM72.6667 35.0667H67.4V41.5333H72.6667M35.2 35.6667V44.8H38.1333V35.6667H35.2ZM42.4 45.8V50.3333H39.2V55H35.2V61.1333H39.2V65.8667H42.4V70.4H46.1333V65.8667H49.3333V61.1333H52V55H49.3333V50.3333H46.1333V45.8H42.4ZM72.6667 55H67.4V50.3333H64.2V45.8H60.5333V50.3333H57.3333V55H54.6667V61.1333H57.3333V65.8667H60.5333V70.4H64.2V65.8667H67.4V61.1333H72.6667M42.8667 55.1333H45.6V60.9333H42.8667V55.1333ZM60.9333 55.1333H63.6667V60.9333H60.9333V55.1333ZM59.8667 151.2V148.067H62.1333V143.333H65.1333V140.467H67.4V135.867H72.6667V125.2H67.4V128.267H65.1333V132.733H62.1333V138.067H57.8667V133.267H54.7333V129.733H52.4667V125.533H49.4667V121.067H47.2667V116.533H45.1333V111.867H42.2667V105.6H46.0667V99.9333H50.2V96.5333H57.1333V101.467H53.1333V105.933H55.8V111.4H58.9333V116.2H62.8667V111.4H66.1333V105.933H68.1333V101.467H72.6667V93H67.4V87.5333H65.4V83.3333H63.5333V78.5333H60.8667V73.8H58.2667V70.6667H55.1333V65.9333H51.3333V70.6667H48.2V73.8H45.5333V78.5333H42.9333V83.3333H40.8V87.4667H38.6667V91.0667H35.2V117.533H39.1333V122H40.2667V126.667H43.2V131.2H45V134.533H46.8667V138.067H50.0667V141.533H54.6667V151.2M35.2 70.3333V79.4667H38.1333V70.3333H35.2ZM72.6667 72.0667H67.4V78.5333H72.6667M72.6667 110.933H67.4V117.4H72.6667V110.933ZM35.3333 127.333V133.2H38.1333V127.333H35.3333ZM39.2 151.2V147.533H40.9333V144.667H43.4667V136.067H40.9333V139.533H38.2667V144.6H35.3333V151.133M49.6 151.133V146.867H46.8V151.133" fill="#CE1720"/>
<path d="M38.1333 300V289.133H35.2V300H38.1333ZM0.666667 281H5.93333V285.333H8.6V290.6H12.3333V295.2H15.4V300H24.6667V295.2H27.6667V290.6H31.4V285.333H34.0667V281H38.1333V274.267H34.0667V269.933H31.4V264.667H27.6667V260.067H24.6667V255.133H22.5333V251H17.5333V255.133H15.4V260.067H12.3333V264.667H8.6V269.933H5.93333V274.267H0.666667M0.666667 297.733H5.93333V291.733H0.666667M21.3333 289.933H18.6V285.867H16V280.733H13.4667V274.4H16V269.267H18.6V265.267H21.3333V269.267H23.9333V274.4H26.5333V280.733H23.9333V285.867H21.3333V289.933ZM21.6 280.667V274.667H18.3333V280.667H21.6ZM0.666667 264.933H5.93333V258.467H0.666667M38.1333 264.333V255.2H35.2V264.333H38.1333ZM30.9333 254.2V249.667H34.1333V245H38.1333V238.867H34.1333V234.133H30.9333V229.6H27.2V234.133H24V238.867H21.3333V245H24V249.667H27.2V254.2H30.9333ZM0.666667 245H5.93333V249.667H9.13333V254.2H12.8V249.667H16V245H18.6667V238.867H16V234.133H12.8V229.6H9.13333V234.133H5.93333V238.867H0.666667M30.4667 244.867H27.7333V239.067H30.4667V244.867ZM12.4 244.867H9.66667V239.067H12.4V244.867ZM13.4667 148.8V151.933H11.2V156.667H8.2V159.533H5.93333V164.133H0.666667V174.8H5.93333V171.733H8.2V167.267H11.2V161.933H15.4667V166.733H18.6V170.267H20.8667V174.467H23.8667V178.933H26.0667V183.467H28.2V188.133H31.0667V194.4H27.2667V200.067H23.1333V203.467H16.2V198.533H20.2V194.067H17.5333V188.6H14.4V183.8H10.4667V188.6H7.2V194.067H5.2V198.533H0.666667V207H5.93333V212.467H7.93333V216.667H9.8V221.467H12.4667V226.2H15.0667V229.333H18.2V234.067H22V229.333H25.1333V226.2H27.8V221.467H30.4V216.667H32.5333V212.533H34.6667V208.933H38.1333V182.467H34.2V178H33.0667V173.333H30.1333V168.8H28.3333V165.467H26.4667V161.933H23.2667V158.467H18.6667V148.8M38.1333 229.667V220.533H35.2V229.667H38.1333ZM0.666667 227.933H5.93333V221.467H0.666667M0.666667 189.067H5.93333V182.6H0.666667V189.067ZM38 172.667V166.8H35.2V172.667H38ZM34.1333 148.8V152.467H32.4V155.333H29.8667V163.933H32.4V160.467H35.0667V155.4H38V148.867M23.7333 148.867V153.133H26.5333V148.867" fill="#CE1720"/>
<path d="M35.2 300V289.133H38.1333V300H35.2ZM72.6667 281H67.4V285.333H64.7333V290.6H61V295.2H57.9333V300H48.6667V295.2H45.6667V290.6H41.9333V285.333H39.2667V281H35.2V274.267H39.2667V269.933H41.9333V264.667H45.6667V260.067H48.6667V255.133H50.8V251H55.8V255.133H57.9333V260.067H61V264.667H64.7333V269.933H67.4V274.267H72.6667M72.6667 297.733H67.4V291.733H72.6667M52 289.933H54.7333V285.867H57.3333V280.733H59.8667V274.4H57.3333V269.267H54.7333V265.267H52V269.267H49.4V274.4H46.8V280.733H49.4V285.867H52V289.933ZM51.7333 280.667V274.667H55V280.667H51.7333ZM72.6667 264.933H67.4V258.467H72.6667M35.2 264.333V255.2H38.1333V264.333H35.2ZM42.4 254.2V249.667H39.2V245H35.2V238.867H39.2V234.133H42.4V229.6H46.1333V234.133H49.3333V238.867H52V245H49.3333V249.667H46.1333V254.2H42.4ZM72.6667 245H67.4V249.667H64.2V254.2H60.5333V249.667H57.3333V245H54.6667V238.867H57.3333V234.133H60.5333V229.6H64.2V234.133H67.4V238.867H72.6667M42.8667 244.867H45.6V239.067H42.8667V244.867ZM60.9333 244.867H63.6667V239.067H60.9333V244.867ZM59.8667 148.8V151.933H62.1333V156.667H65.1333V159.533H67.4V164.133H72.6667V174.8H67.4V171.733H65.1333V167.267H62.1333V161.933H57.8667V166.733H54.7333V170.267H52.4667V174.467H49.4667V178.933H47.2667V183.467H45.1333V188.133H42.2667V194.4H46.0667V200.067H50.2V203.467H57.1333V198.533H53.1333V194.067H55.8V188.6H58.9333V183.8H62.8667V188.6H66.1333V194.067H68.1333V198.533H72.6667V207H67.4V212.467H65.4V216.667H63.5333V221.467H60.8667V226.2H58.2667V229.333H55.1333V234.067H51.3333V229.333H48.2V226.2H45.5333V221.467H42.9333V216.667H40.8V212.533H38.6667V208.933H35.2V182.467H39.1333V178H40.2667V173.333H43.2V168.8H45V165.467H46.8667V161.933H50.0667V158.467H54.6667V148.8M35.2 229.667V220.533H38.1333V229.667H35.2ZM72.6667 227.933H67.4V221.467H72.6667M72.6667 189.067H67.4V182.6H72.6667V189.067ZM35.3333 172.667V166.8H38.1333V172.667H35.3333ZM39.2 148.8V152.467H40.9333V155.333H43.4667V163.933H40.9333V160.467H38.2667V155.4H35.3333V148.867M49.6 148.867V153.133H46.8V148.867" fill="#CE1720"/>
<path d="M70 200H600V300H70V200Z" fill="#007C30"/>
</g>
<defs>
<clipPath id="clip0_2_2">
<rect width="600" height="300" fill="white"/>
</clipPath>
</defs>
</svg>
